<svg width="92" height="23" viewBox="0 0 92 23" fill="none" xmlns="http://www.w3.org/2000/svg">
<mask id="path-1-outside-1_13_2062" maskUnits="userSpaceOnUse" x="-0.719971" y="-0.692383" width="92" height="23" fill="black">
<rect fill="white" x="-0.719971" y="-0.692383" width="92" height="23"/>
<path d="M0.700029 1.70762H16.828V5.73962L16.492 5.68362C16.492 4.47028 15.9134 3.60228 14.756 3.07962C13.5987 2.53828 11.9374 2.26762 9.77203 2.26762V14.9796C9.77203 16.3423 9.80003 17.425 9.85603 18.2276C9.91203 19.0303 10.0427 19.6276 10.248 20.0196C10.4534 20.4116 10.78 20.673 11.228 20.8036C11.676 20.9156 12.2827 20.9716 13.048 20.9716L13.104 21.3076H4.48003L4.53603 20.9716C5.32003 20.9716 5.9267 20.9156 6.35603 20.8036C6.80403 20.673 7.1307 20.4116 7.33603 20.0196C7.54136 19.6276 7.67203 19.0303 7.72803 18.2276C7.78403 17.425 7.81203 16.3423 7.81203 14.9796V2.26762C5.66536 2.26762 3.9947 2.53828 2.80003 3.07962C1.62403 3.60228 1.03603 4.47028 1.03603 5.68362L0.700029 5.73962V1.70762ZM27.5623 7.64362C27.9916 7.64362 28.393 7.74628 28.7663 7.95162C29.1396 8.13828 29.3263 8.41828 29.3263 8.79162C29.3263 9.16495 29.205 9.45428 28.9623 9.65962C28.7196 9.84628 28.4676 9.93962 28.2063 9.93962C27.9263 9.93962 27.6836 9.88362 27.4783 9.77162C27.2916 9.64095 27.077 9.51962 26.8343 9.40762C26.6103 9.27695 26.2836 9.21162 25.8543 9.21162C25.3503 9.21162 24.9116 9.53828 24.5383 10.1916C24.165 10.8263 23.8756 11.657 23.6703 12.6836C23.4836 13.7103 23.3903 14.7836 23.3903 15.9036C23.3903 17.0796 23.409 18.013 23.4463 18.7036C23.5023 19.3943 23.605 19.8983 23.7543 20.2156C23.9036 20.533 24.137 20.7383 24.4543 20.8316C24.7716 20.925 25.2103 20.9716 25.7703 20.9716L25.8263 21.3076H19.0223L19.0783 20.9716C19.6196 20.9716 20.049 20.925 20.3663 20.8316C20.6836 20.7383 20.917 20.533 21.0663 20.2156C21.2156 19.8983 21.309 19.3943 21.3463 18.7036C21.4023 18.013 21.4303 17.0796 21.4303 15.9036V14.2796C21.4303 12.917 21.4023 11.8436 21.3463 11.0596C21.309 10.257 21.197 9.66895 21.0103 9.29562C20.8423 8.92228 20.5716 8.68895 20.1983 8.59562C19.8436 8.48362 19.349 8.42762 18.7143 8.42762L18.6583 8.11962C18.6583 8.11962 18.8916 8.09162 19.3583 8.03562C19.825 7.97962 20.413 7.92362 21.1223 7.86762C21.8503 7.81162 22.6063 7.78362 23.3903 7.78362V11.8996C23.5956 10.5743 24.053 9.53828 24.7623 8.79162C25.4903 8.02628 26.4236 7.64362 27.5623 7.64362ZM43.666 12.2636V15.0916C43.666 16.417 43.6847 17.4436 43.722 18.1716C43.778 18.8996 43.89 19.413 44.058 19.7116C44.226 19.9916 44.478 20.1316 44.814 20.1316C45.0567 20.1316 45.2807 20.0943 45.486 20.0196C45.6914 19.9263 45.8874 19.833 46.074 19.7396L46.214 20.0196C46.214 20.0196 46.0274 20.141 45.654 20.3836C45.2807 20.6076 44.7674 20.841 44.114 21.0836C43.4794 21.3263 42.77 21.4476 41.986 21.4476C41.9114 21.093 41.846 20.5703 41.79 19.8796C41.734 19.189 41.706 18.461 41.706 17.6956C41.5007 18.3116 41.2207 18.9183 40.866 19.5156C40.53 20.113 40.0727 20.6076 39.494 20.9996C38.9154 21.3916 38.1687 21.5876 37.254 21.5876C36.1527 21.5876 35.2567 21.2796 34.566 20.6636C33.8754 20.0476 33.53 19.189 33.53 18.0876C33.53 17.1916 33.8007 16.4076 34.342 15.7356C34.8834 15.045 35.7514 14.513 36.946 14.1396C38.1407 13.7476 39.7274 13.5516 41.706 13.5516V12.5436C41.706 11.741 41.6314 11.0316 41.482 10.4156C41.3514 9.78095 41.0807 9.28628 40.67 8.93162C40.278 8.57695 39.6994 8.39962 38.934 8.39962C38.4114 8.39962 38.0007 8.50228 37.702 8.70762C37.4034 8.89428 37.1607 9.12762 36.974 9.40762C36.806 9.68762 36.6567 9.97695 36.526 10.2756C36.3954 10.5556 36.2367 10.7983 36.05 11.0036C35.882 11.1903 35.6394 11.2836 35.322 11.2836C34.6874 11.2836 34.37 10.9663 34.37 10.3316C34.37 9.79028 34.594 9.33295 35.042 8.95962C35.49 8.58628 36.0687 8.29695 36.778 8.09162C37.506 7.88628 38.262 7.78362 39.046 7.78362C40.3714 7.78362 41.4727 8.14762 42.35 8.87562C43.2274 9.58495 43.666 10.7143 43.666 12.2636ZM37.702 20.7196C38.43 20.7196 39.046 20.505 39.55 20.0756C40.054 19.6463 40.4554 19.0956 40.754 18.4236C41.0714 17.7516 41.3047 17.0423 41.454 16.2956C41.6034 15.5303 41.6874 14.8303 41.706 14.1956C40.2314 14.2143 39.046 14.4103 38.15 14.7836C37.2727 15.157 36.638 15.6423 36.246 16.2396C35.854 16.837 35.658 17.4903 35.658 18.1996C35.658 18.8903 35.826 19.4876 36.162 19.9916C36.498 20.477 37.0114 20.7196 37.702 20.7196ZM58.515 8.39962L58.459 8.06362H63.723L63.667 8.39962C63.275 8.39962 62.9577 8.44628 62.715 8.53962C62.4723 8.63295 62.2483 8.84762 62.043 9.18362C61.8377 9.51962 61.6043 10.0516 61.343 10.7796C61.0817 11.4889 60.7457 12.4689 60.335 13.7196L57.815 21.3916H56.163L52.523 12.0956C52.075 10.9569 51.6643 10.1263 51.291 9.60362C50.9177 9.08095 50.5537 8.75428 50.199 8.62362C49.8443 8.47428 49.471 8.39962 49.079 8.39962L49.023 8.06362H55.967L55.911 8.39962C55.239 8.39962 54.7817 8.51162 54.539 8.73562C54.2963 8.94095 54.175 9.24895 54.175 9.65962C54.175 10.1636 54.2963 10.8076 54.539 11.5916C54.7817 12.3756 55.099 13.2623 55.491 14.2516L57.647 19.6836L59.831 12.9636C60.0923 12.1796 60.2603 11.5543 60.335 11.0876C60.4283 10.6023 60.475 10.2103 60.475 9.91162C60.475 9.46362 60.335 9.09962 60.055 8.81962C59.775 8.53962 59.2617 8.39962 58.515 8.39962ZM78.6816 14.2236H69.4976V14.6996C69.4976 16.0996 69.7029 17.2476 70.1136 18.1436C70.5242 19.0396 71.0656 19.7023 71.7376 20.1316C72.4096 20.561 73.1282 20.7756 73.8936 20.7756C74.6776 20.7756 75.4336 20.6076 76.1616 20.2716C76.9082 19.917 77.4962 19.3383 77.9256 18.5356L78.3456 18.7596C77.8229 19.7863 77.1229 20.5143 76.2456 20.9436C75.3869 21.373 74.4629 21.5876 73.4736 21.5876C72.4282 21.5876 71.4389 21.3356 70.5056 20.8316C69.5722 20.309 68.8162 19.5343 68.2376 18.5076C67.6589 17.481 67.3696 16.2116 67.3696 14.6996C67.3696 13.4303 67.6029 12.273 68.0696 11.2276C68.5362 10.1823 69.1989 9.35162 70.0576 8.73562C70.9349 8.10095 71.9896 7.78362 73.2216 7.78362C74.4349 7.78362 75.4429 8.07295 76.2456 8.65162C77.0482 9.23028 77.6549 10.0049 78.0656 10.9756C78.4762 11.9463 78.6816 13.029 78.6816 14.2236ZM73.2496 8.34362C72.1109 8.34362 71.2429 8.82895 70.6456 9.79962C70.0482 10.7703 69.6842 11.9743 69.5536 13.4116H76.5256C76.4696 11.881 76.1896 10.6583 75.6856 9.74362C75.1816 8.81028 74.3696 8.34362 73.2496 8.34362ZM88.0095 0.699615V16.4356C88.0095 17.4623 88.0282 18.2836 88.0655 18.8996C88.1028 19.497 88.1962 19.945 88.3455 20.2436C88.5135 20.5423 88.7562 20.7383 89.0735 20.8316C89.3908 20.925 89.8295 20.9716 90.3895 20.9716L90.4455 21.3076H83.5855L83.6415 20.9716C84.2202 20.9716 84.6682 20.925 84.9855 20.8316C85.3215 20.7383 85.5642 20.5423 85.7135 20.2436C85.8628 19.945 85.9562 19.497 85.9935 18.8996C86.0308 18.2836 86.0495 17.4623 86.0495 16.4356V5.73962C86.0495 4.73162 86.0308 3.92895 85.9935 3.33162C85.9562 2.73428 85.8628 2.29562 85.7135 2.01562C85.5642 1.73562 85.3215 1.55828 84.9855 1.48362C84.6682 1.39028 84.2202 1.34362 83.6415 1.34362L83.5855 1.03562C83.5855 1.03562 83.7908 1.00762 84.2015 0.951616C84.6122 0.895616 85.1535 0.839616 85.8255 0.783616C86.5162 0.727616 87.2442 0.699615 88.0095 0.699615Z"/>
</mask>
<path d="M0.700029 1.70762H16.828V5.73962L16.492 5.68362C16.492 4.47028 15.9134 3.60228 14.756 3.07962C13.5987 2.53828 11.9374 2.26762 9.77203 2.26762V14.9796C9.77203 16.3423 9.80003 17.425 9.85603 18.2276C9.91203 19.0303 10.0427 19.6276 10.248 20.0196C10.4534 20.4116 10.78 20.673 11.228 20.8036C11.676 20.9156 12.2827 20.9716 13.048 20.9716L13.104 21.3076H4.48003L4.53603 20.9716C5.32003 20.9716 5.9267 20.9156 6.35603 20.8036C6.80403 20.673 7.1307 20.4116 7.33603 20.0196C7.54136 19.6276 7.67203 19.0303 7.72803 18.2276C7.78403 17.425 7.81203 16.3423 7.81203 14.9796V2.26762C5.66536 2.26762 3.9947 2.53828 2.80003 3.07962C1.62403 3.60228 1.03603 4.47028 1.03603 5.68362L0.700029 5.73962V1.70762ZM27.5623 7.64362C27.9916 7.64362 28.393 7.74628 28.7663 7.95162C29.1396 8.13828 29.3263 8.41828 29.3263 8.79162C29.3263 9.16495 29.205 9.45428 28.9623 9.65962C28.7196 9.84628 28.4676 9.93962 28.2063 9.93962C27.9263 9.93962 27.6836 9.88362 27.4783 9.77162C27.2916 9.64095 27.077 9.51962 26.8343 9.40762C26.6103 9.27695 26.2836 9.21162 25.8543 9.21162C25.3503 9.21162 24.9116 9.53828 24.5383 10.1916C24.165 10.8263 23.8756 11.657 23.6703 12.6836C23.4836 13.7103 23.3903 14.7836 23.3903 15.9036C23.3903 17.0796 23.409 18.013 23.4463 18.7036C23.5023 19.3943 23.605 19.8983 23.7543 20.2156C23.9036 20.533 24.137 20.7383 24.4543 20.8316C24.7716 20.925 25.2103 20.9716 25.7703 20.9716L25.8263 21.3076H19.0223L19.0783 20.9716C19.6196 20.9716 20.049 20.925 20.3663 20.8316C20.6836 20.7383 20.917 20.533 21.0663 20.2156C21.2156 19.8983 21.309 19.3943 21.3463 18.7036C21.4023 18.013 21.4303 17.0796 21.4303 15.9036V14.2796C21.4303 12.917 21.4023 11.8436 21.3463 11.0596C21.309 10.257 21.197 9.66895 21.0103 9.29562C20.8423 8.92228 20.5716 8.68895 20.1983 8.59562C19.8436 8.48362 19.349 8.42762 18.7143 8.42762L18.6583 8.11962C18.6583 8.11962 18.8916 8.09162 19.3583 8.03562C19.825 7.97962 20.413 7.92362 21.1223 7.86762C21.8503 7.81162 22.6063 7.78362 23.3903 7.78362V11.8996C23.5956 10.5743 24.053 9.53828 24.7623 8.79162C25.4903 8.02628 26.4236 7.64362 27.5623 7.64362ZM43.666 12.2636V15.0916C43.666 16.417 43.6847 17.4436 43.722 18.1716C43.778 18.8996 43.89 19.413 44.058 19.7116C44.226 19.9916 44.478 20.1316 44.814 20.1316C45.0567 20.1316 45.2807 20.0943 45.486 20.0196C45.6914 19.9263 45.8874 19.833 46.074 19.7396L46.214 20.0196C46.214 20.0196 46.0274 20.141 45.654 20.3836C45.2807 20.6076 44.7674 20.841 44.114 21.0836C43.4794 21.3263 42.77 21.4476 41.986 21.4476C41.9114 21.093 41.846 20.5703 41.79 19.8796C41.734 19.189 41.706 18.461 41.706 17.6956C41.5007 18.3116 41.2207 18.9183 40.866 19.5156C40.53 20.113 40.0727 20.6076 39.494 20.9996C38.9154 21.3916 38.1687 21.5876 37.254 21.5876C36.1527 21.5876 35.2567 21.2796 34.566 20.6636C33.8754 20.0476 33.53 19.189 33.53 18.0876C33.53 17.1916 33.8007 16.4076 34.342 15.7356C34.8834 15.045 35.7514 14.513 36.946 14.1396C38.1407 13.7476 39.7274 13.5516 41.706 13.5516V12.5436C41.706 11.741 41.6314 11.0316 41.482 10.4156C41.3514 9.78095 41.0807 9.28628 40.67 8.93162C40.278 8.57695 39.6994 8.39962 38.934 8.39962C38.4114 8.39962 38.0007 8.50228 37.702 8.70762C37.4034 8.89428 37.1607 9.12762 36.974 9.40762C36.806 9.68762 36.6567 9.97695 36.526 10.2756C36.3954 10.5556 36.2367 10.7983 36.05 11.0036C35.882 11.1903 35.6394 11.2836 35.322 11.2836C34.6874 11.2836 34.37 10.9663 34.37 10.3316C34.37 9.79028 34.594 9.33295 35.042 8.95962C35.49 8.58628 36.0687 8.29695 36.778 8.09162C37.506 7.88628 38.262 7.78362 39.046 7.78362C40.3714 7.78362 41.4727 8.14762 42.35 8.87562C43.2274 9.58495 43.666 10.7143 43.666 12.2636ZM37.702 20.7196C38.43 20.7196 39.046 20.505 39.55 20.0756C40.054 19.6463 40.4554 19.0956 40.754 18.4236C41.0714 17.7516 41.3047 17.0423 41.454 16.2956C41.6034 15.5303 41.6874 14.8303 41.706 14.1956C40.2314 14.2143 39.046 14.4103 38.15 14.7836C37.2727 15.157 36.638 15.6423 36.246 16.2396C35.854 16.837 35.658 17.4903 35.658 18.1996C35.658 18.8903 35.826 19.4876 36.162 19.9916C36.498 20.477 37.0114 20.7196 37.702 20.7196ZM58.515 8.39962L58.459 8.06362H63.723L63.667 8.39962C63.275 8.39962 62.9577 8.44628 62.715 8.53962C62.4723 8.63295 62.2483 8.84762 62.043 9.18362C61.8377 9.51962 61.6043 10.0516 61.343 10.7796C61.0817 11.4889 60.7457 12.4689 60.335 13.7196L57.815 21.3916H56.163L52.523 12.0956C52.075 10.9569 51.6643 10.1263 51.291 9.60362C50.9177 9.08095 50.5537 8.75428 50.199 8.62362C49.8443 8.47428 49.471 8.39962 49.079 8.39962L49.023 8.06362H55.967L55.911 8.39962C55.239 8.39962 54.7817 8.51162 54.539 8.73562C54.2963 8.94095 54.175 9.24895 54.175 9.65962C54.175 10.1636 54.2963 10.8076 54.539 11.5916C54.7817 12.3756 55.099 13.2623 55.491 14.2516L57.647 19.6836L59.831 12.9636C60.0923 12.1796 60.2603 11.5543 60.335 11.0876C60.4283 10.6023 60.475 10.2103 60.475 9.91162C60.475 9.46362 60.335 9.09962 60.055 8.81962C59.775 8.53962 59.2617 8.39962 58.515 8.39962ZM78.6816 14.2236H69.4976V14.6996C69.4976 16.0996 69.7029 17.2476 70.1136 18.1436C70.5242 19.0396 71.0656 19.7023 71.7376 20.1316C72.4096 20.561 73.1282 20.7756 73.8936 20.7756C74.6776 20.7756 75.4336 20.6076 76.1616 20.2716C76.9082 19.917 77.4962 19.3383 77.9256 18.5356L78.3456 18.7596C77.8229 19.7863 77.1229 20.5143 76.2456 20.9436C75.3869 21.373 74.4629 21.5876 73.4736 21.5876C72.4282 21.5876 71.4389 21.3356 70.5056 20.8316C69.5722 20.309 68.8162 19.5343 68.2376 18.5076C67.6589 17.481 67.3696 16.2116 67.3696 14.6996C67.3696 13.4303 67.6029 12.273 68.0696 11.2276C68.5362 10.1823 69.1989 9.35162 70.0576 8.73562C70.9349 8.10095 71.9896 7.78362 73.2216 7.78362C74.4349 7.78362 75.4429 8.07295 76.2456 8.65162C77.0482 9.23028 77.6549 10.0049 78.0656 10.9756C78.4762 11.9463 78.6816 13.029 78.6816 14.2236ZM73.2496 8.34362C72.1109 8.34362 71.2429 8.82895 70.6456 9.79962C70.0482 10.7703 69.6842 11.9743 69.5536 13.4116H76.5256C76.4696 11.881 76.1896 10.6583 75.6856 9.74362C75.1816 8.81028 74.3696 8.34362 73.2496 8.34362ZM88.0095 0.699615V16.4356C88.0095 17.4623 88.0282 18.2836 88.0655 18.8996C88.1028 19.497 88.1962 19.945 88.3455 20.2436C88.5135 20.5423 88.7562 20.7383 89.0735 20.8316C89.3908 20.925 89.8295 20.9716 90.3895 20.9716L90.4455 21.3076H83.5855L83.6415 20.9716C84.2202 20.9716 84.6682 20.925 84.9855 20.8316C85.3215 20.7383 85.5642 20.5423 85.7135 20.2436C85.8628 19.945 85.9562 19.497 85.9935 18.8996C86.0308 18.2836 86.0495 17.4623 86.0495 16.4356V5.73962C86.0495 4.73162 86.0308 3.92895 85.9935 3.33162C85.9562 2.73428 85.8628 2.29562 85.7135 2.01562C85.5642 1.73562 85.3215 1.55828 84.9855 1.48362C84.6682 1.39028 84.2202 1.34362 83.6415 1.34362L83.5855 1.03562C83.5855 1.03562 83.7908 1.00762 84.2015 0.951616C84.6122 0.895616 85.1535 0.839616 85.8255 0.783616C86.5162 0.727616 87.2442 0.699615 88.0095 0.699615Z" fill="#25A59E"/>
<path d="M0.700029 1.70762V1.00762H2.93255e-05V1.70762H0.700029ZM16.828 1.70762H17.528V1.00762H16.828V1.70762ZM16.828 5.73962L16.713 6.43009L17.528 6.56594V5.73962H16.828ZM16.492 5.68362H15.792V6.27661L16.377 6.37409L16.492 5.68362ZM14.756 3.07962L14.4594 3.71374L14.4679 3.71758L14.756 3.07962ZM9.77203 2.26762V1.56762H9.07203V2.26762H9.77203ZM9.85603 18.2276L9.15773 18.2763L9.15773 18.2763L9.85603 18.2276ZM10.248 20.0196L9.62795 20.3444L9.62795 20.3444L10.248 20.0196ZM11.228 20.8036L11.032 21.4756L11.0451 21.4794L11.0583 21.4827L11.228 20.8036ZM13.048 20.9716L13.7385 20.8565L13.641 20.2716H13.048V20.9716ZM13.104 21.3076V22.0076H13.9304L13.7945 21.1925L13.104 21.3076ZM4.48003 21.3076L3.78955 21.1925L3.65371 22.0076H4.48003V21.3076ZM4.53603 20.9716V20.2716H3.94304L3.84555 20.8565L4.53603 20.9716ZM6.35603 20.8036L6.53272 21.4809L6.54242 21.4784L6.55203 21.4756L6.35603 20.8036ZM7.33603 20.0196L6.71595 19.6948L6.71595 19.6948L7.33603 20.0196ZM7.72803 18.2276L7.02973 18.1789L7.02973 18.1789L7.72803 18.2276ZM7.81203 2.26762H8.51203V1.56762H7.81203V2.26762ZM2.80003 3.07962L3.08433 3.7193L3.08894 3.71721L2.80003 3.07962ZM1.03603 5.68362L1.15111 6.37409L1.73603 6.27661V5.68362H1.03603ZM0.700029 5.73962H2.93255e-05V6.56594L0.815107 6.43009L0.700029 5.73962ZM0.700029 1.70762V2.40762H16.828V1.70762V1.00762H0.700029V1.70762ZM16.828 1.70762H16.128V5.73962H16.828H17.528V1.70762H16.828ZM16.828 5.73962L16.9431 5.04914L16.6071 4.99314L16.492 5.68362L16.377 6.37409L16.713 6.43009L16.828 5.73962ZM16.492 5.68362H17.192C17.192 4.96185 17.0183 4.30113 16.6405 3.73433C16.264 3.16958 15.7163 2.74521 15.0441 2.44166L14.756 3.07962L14.4679 3.71758C14.9531 3.93669 15.2734 4.20765 15.4756 4.51091C15.6764 4.8121 15.792 5.19205 15.792 5.68362H16.492ZM14.756 3.07962L15.0526 2.44555C13.7593 1.8406 11.9781 1.56762 9.77203 1.56762V2.26762V2.96762C11.8966 2.96762 13.4381 3.23597 14.4595 3.71368L14.756 3.07962ZM9.77203 2.26762H9.07203V14.9796H9.77203H10.472V2.26762H9.77203ZM9.77203 14.9796H9.07203C9.07203 16.3491 9.10009 17.4502 9.15773 18.2763L9.85603 18.2276L10.5543 18.1789C10.5 17.3997 10.472 16.3355 10.472 14.9796H9.77203ZM9.85603 18.2276L9.15773 18.2763C9.21584 19.1093 9.3548 19.823 9.62795 20.3444L10.248 20.0196L10.8681 19.6948C10.7306 19.4323 10.6082 18.9512 10.5543 18.1789L9.85603 18.2276ZM10.248 20.0196L9.62795 20.3444C9.92682 20.915 10.4125 21.2949 11.032 21.4756L11.228 20.8036L11.424 20.1316C11.1476 20.051 10.9799 19.9082 10.8681 19.6948L10.248 20.0196ZM11.228 20.8036L11.0583 21.4827C11.5861 21.6147 12.2576 21.6716 13.048 21.6716V20.9716V20.2716C12.3078 20.2716 11.7659 20.2166 11.3978 20.1245L11.228 20.8036ZM13.048 20.9716L12.3576 21.0867L12.4136 21.4227L13.104 21.3076L13.7945 21.1925L13.7385 20.8565L13.048 20.9716ZM13.104 21.3076V20.6076H4.48003V21.3076V22.0076H13.104V21.3076ZM4.48003 21.3076L5.17051 21.4227L5.22651 21.0867L4.53603 20.9716L3.84555 20.8565L3.78955 21.1925L4.48003 21.3076ZM4.53603 20.9716V21.6716C5.34158 21.6716 6.01783 21.6153 6.53272 21.4809L6.35603 20.8036L6.17933 20.1263C5.83557 20.216 5.29848 20.2716 4.53603 20.2716V20.9716ZM6.35603 20.8036L6.55203 21.4756C7.17156 21.2949 7.65724 20.915 7.95611 20.3444L7.33603 20.0196L6.71595 19.6948C6.60415 19.9082 6.4365 20.051 6.16003 20.1316L6.35603 20.8036ZM7.33603 20.0196L7.95611 20.3444C8.22926 19.823 8.36822 19.1093 8.42633 18.2763L7.72803 18.2276L7.02973 18.1789C6.97584 18.9512 6.85346 19.4323 6.71595 19.6948L7.33603 20.0196ZM7.72803 18.2276L8.42633 18.2763C8.48397 17.4502 8.51203 16.3491 8.51203 14.9796H7.81203H7.11203C7.11203 16.3355 7.08409 17.3997 7.02973 18.1789L7.72803 18.2276ZM7.81203 14.9796H8.51203V2.26762H7.81203H7.11203V14.9796H7.81203ZM7.81203 2.26762V1.56762C5.62145 1.56762 3.83638 1.84151 2.51112 2.44202L2.80003 3.07962L3.08894 3.71721C4.15301 3.23506 5.70928 2.96762 7.81203 2.96762V2.26762ZM2.80003 3.07962L2.51573 2.43995C1.83538 2.74233 1.27996 3.16542 0.897486 3.73002C0.513187 4.29732 0.336029 4.95962 0.336029 5.68362H1.03603H1.73603C1.73603 5.19428 1.85287 4.81591 2.05657 4.51521C2.2621 4.21181 2.58868 3.93957 3.08433 3.71928L2.80003 3.07962ZM1.03603 5.68362L0.920951 4.99314L0.584951 5.04914L0.700029 5.73962L0.815107 6.43009L1.15111 6.37409L1.03603 5.68362ZM0.700029 5.73962H1.40003V1.70762H0.700029H2.93255e-05V5.73962H0.700029ZM28.7663 7.95162L28.429 8.56497L28.441 8.57158L28.4533 8.57772L28.7663 7.95162ZM28.9623 9.65962L29.3891 10.2145L29.402 10.2045L29.4145 10.194L28.9623 9.65962ZM27.4783 9.77162L27.0769 10.3451L27.1089 10.3675L27.1431 10.3861L27.4783 9.77162ZM26.8343 9.40762L26.4816 10.0123L26.5105 10.0291L26.541 10.0432L26.8343 9.40762ZM24.5383 10.1916L25.1417 10.5466L25.1461 10.5389L24.5383 10.1916ZM23.6703 12.6836L22.9838 12.5463L22.9816 12.5584L23.6703 12.6836ZM23.4463 18.7036L22.7473 18.7414L22.7478 18.7508L22.7486 18.7602L23.4463 18.7036ZM23.7543 20.2156L23.1209 20.5137L23.1209 20.5137L23.7543 20.2156ZM24.4543 20.8316L24.6518 20.1601L24.6518 20.1601L24.4543 20.8316ZM25.7703 20.9716L26.4608 20.8565L26.3633 20.2716H25.7703V20.9716ZM25.8263 21.3076V22.0076H26.6526L26.5168 21.1925L25.8263 21.3076ZM19.0223 21.3076L18.3318 21.1925L18.196 22.0076H19.0223V21.3076ZM19.0783 20.9716V20.2716H18.4853L18.3878 20.8565L19.0783 20.9716ZM20.3663 20.8316L20.5638 21.5032L20.5638 21.5032L20.3663 20.8316ZM21.0663 20.2156L21.6997 20.5137L21.6997 20.5137L21.0663 20.2156ZM21.3463 18.7036L20.6486 18.647L20.6478 18.6564L20.6473 18.6658L21.3463 18.7036ZM21.3463 11.0596L20.6471 11.0921L20.6475 11.1008L20.6481 11.1095L21.3463 11.0596ZM21.0103 9.29562L20.372 9.58287L20.3778 9.59589L20.3842 9.60867L21.0103 9.29562ZM20.1983 8.59562L19.9875 9.26312L20.0079 9.26955L20.0285 9.27472L20.1983 8.59562ZM18.7143 8.42762L18.0256 8.55284L18.1301 9.12762H18.7143V8.42762ZM18.6583 8.11962L18.5749 7.4246L17.8366 7.5132L17.9696 8.24484L18.6583 8.11962ZM19.3583 8.03562L19.2749 7.3406L19.2749 7.3406L19.3583 8.03562ZM21.1223 7.86762L21.0686 7.16968L21.0672 7.16979L21.1223 7.86762ZM23.3903 7.78362H24.0903V7.08362H23.3903V7.78362ZM23.3903 11.8996H22.6903L24.0821 12.0068L23.3903 11.8996ZM24.7623 8.79162L24.2551 8.30917L24.2548 8.30949L24.7623 8.79162ZM27.5623 7.64362V8.34362C27.8746 8.34362 28.1598 8.41693 28.429 8.56497L28.7663 7.95162L29.1037 7.33827C28.6261 7.07563 28.1087 6.94362 27.5623 6.94362V7.64362ZM28.7663 7.95162L28.4533 8.57772C28.5569 8.62953 28.5926 8.67292 28.6039 8.68991C28.6123 8.70251 28.6263 8.72744 28.6263 8.79162H29.3263H30.0263C30.0263 8.48246 29.947 8.18072 29.7687 7.91333C29.5934 7.65031 29.3491 7.46037 29.0794 7.32552L28.7663 7.95162ZM29.3263 8.79162H28.6263C28.6263 8.99883 28.5676 9.07664 28.5102 9.12525L28.9623 9.65962L29.4145 10.194C29.8424 9.83193 30.0263 9.33107 30.0263 8.79162H29.3263ZM28.9623 9.65962L28.5355 9.10478C28.3934 9.2141 28.2878 9.23962 28.2063 9.23962V9.93962V10.6396C28.6475 10.6396 29.0459 10.4785 29.3891 10.2145L28.9623 9.65962ZM28.2063 9.93962V9.23962C28.0204 9.23962 27.8975 9.20293 27.8135 9.15709L27.4783 9.77162L27.1431 10.3861C27.4697 10.5643 27.8322 10.6396 28.2063 10.6396V9.93962ZM27.4783 9.77162L27.8797 9.19815C27.6537 9.03994 27.4018 8.89859 27.1277 8.77205L26.8343 9.40762L26.541 10.0432C26.7521 10.1406 26.9296 10.242 27.0769 10.3451L27.4783 9.77162ZM26.8343 9.40762L27.187 8.80297C26.8072 8.58141 26.3353 8.51162 25.8543 8.51162V9.21162V9.91162C26.232 9.91162 26.4134 9.97249 26.4816 10.0123L26.8343 9.40762ZM25.8543 9.21162V8.51162C24.9882 8.51162 24.3614 9.09024 23.9305 9.84432L24.5383 10.1916L25.1461 10.5389C25.4618 9.98633 25.7124 9.91162 25.8543 9.91162V9.21162ZM24.5383 10.1916L23.935 9.8367C23.5091 10.5607 23.1986 11.4726 22.9839 12.5463L23.6703 12.6836L24.3567 12.8209C24.5526 11.8413 24.8208 11.0919 25.1417 10.5465L24.5383 10.1916ZM23.6703 12.6836L22.9816 12.5584C22.7869 13.6293 22.6903 14.7447 22.6903 15.9036H23.3903H24.0903C24.0903 14.8226 24.1804 13.7913 24.359 12.8088L23.6703 12.6836ZM23.3903 15.9036H22.6903C22.6903 17.0848 22.709 18.0325 22.7473 18.7414L23.4463 18.7036L24.1453 18.6658C24.1089 17.9934 24.0903 17.0744 24.0903 15.9036H23.3903ZM23.4463 18.7036L22.7486 18.7602C22.8061 19.4692 22.9158 20.0777 23.1209 20.5137L23.7543 20.2156L24.3877 19.9176C24.2942 19.7188 24.1985 19.3194 24.144 18.647L23.4463 18.7036ZM23.7543 20.2156L23.1209 20.5137C23.3497 20.9997 23.7347 21.3496 24.2568 21.5032L24.4543 20.8316L24.6518 20.1601C24.5392 20.1269 24.4576 20.0662 24.3877 19.9176L23.7543 20.2156ZM24.4543 20.8316L24.2568 21.5032C24.6675 21.624 25.1829 21.6716 25.7703 21.6716V20.9716V20.2716C25.2378 20.2716 24.8758 20.2259 24.6518 20.1601L24.4543 20.8316ZM25.7703 20.9716L25.0798 21.0867L25.1358 21.4227L25.8263 21.3076L26.5168 21.1925L26.4608 20.8565L25.7703 20.9716ZM25.8263 21.3076V20.6076H19.0223V21.3076V22.0076H25.8263V21.3076ZM19.0223 21.3076L19.7128 21.4227L19.7688 21.0867L19.0783 20.9716L18.3878 20.8565L18.3318 21.1925L19.0223 21.3076ZM19.0783 20.9716V21.6716C19.6498 21.6716 20.1547 21.6235 20.5638 21.5032L20.3663 20.8316L20.1688 20.1601C19.9432 20.2264 19.5895 20.2716 19.0783 20.2716V20.9716ZM20.3663 20.8316L20.5638 21.5032C21.0859 21.3496 21.4709 20.9997 21.6997 20.5137L21.0663 20.2156L20.4329 19.9176C20.363 20.0662 20.2814 20.1269 20.1688 20.1601L20.3663 20.8316ZM21.0663 20.2156L21.6997 20.5137C21.9091 20.0687 22.0069 19.4518 22.0453 18.7414L21.3463 18.7036L20.6473 18.6658C20.6111 19.3368 20.5222 19.7278 20.4329 19.9176L21.0663 20.2156ZM21.3463 18.7036L22.044 18.7602C22.1022 18.0422 22.1303 17.0875 22.1303 15.9036H21.4303H20.7303C20.7303 17.0718 20.7024 17.9837 20.6486 18.647L21.3463 18.7036ZM21.4303 15.9036H22.1303V14.2796H21.4303H20.7303V15.9036H21.4303ZM21.4303 14.2796H22.1303C22.1303 12.9104 22.1023 11.8181 22.0445 11.0097L21.3463 11.0596L20.6481 11.1095C20.7024 11.8692 20.7303 12.9235 20.7303 14.2796H21.4303ZM21.3463 11.0596L22.0456 11.0271C22.0071 10.2005 21.8908 9.49127 21.6364 8.98257L21.0103 9.29562L20.3842 9.60867C20.5032 9.84663 20.6108 10.3134 20.6471 11.0921L21.3463 11.0596ZM21.0103 9.29562L21.6487 9.00836C21.3992 8.45397 20.9642 8.06555 20.3681 7.91652L20.1983 8.59562L20.0285 9.27472C20.1791 9.31235 20.2854 9.3906 20.372 9.58287L21.0103 9.29562ZM20.1983 8.59562L20.4091 7.92811C19.9548 7.78463 19.3776 7.72762 18.7143 7.72762V8.42762V9.12762C19.3204 9.12762 19.7325 9.1826 19.9875 9.26312L20.1983 8.59562ZM18.7143 8.42762L19.403 8.3024L19.347 7.9944L18.6583 8.11962L17.9696 8.24484L18.0256 8.55284L18.7143 8.42762ZM18.6583 8.11962C18.7417 8.81463 18.7417 8.81463 18.7417 8.81463C18.7417 8.81463 18.7417 8.81463 18.7417 8.81463C18.7417 8.81463 18.7417 8.81463 18.7417 8.81463C18.7417 8.81463 18.7417 8.81463 18.7418 8.81463C18.7418 8.81462 18.7418 8.81462 18.7419 8.81461C18.7419 8.81461 18.7419 8.81461 18.7419 8.8146C18.7419 8.8146 18.742 8.8146 18.742 8.8146C18.742 8.81459 18.7421 8.81459 18.7421 8.81458C18.7421 8.81458 18.7421 8.81458 18.7422 8.81458C18.7422 8.81457 18.7422 8.81457 18.7422 8.81457C18.7423 8.81457 18.7424 8.81455 18.7424 8.81455C18.7424 8.81455 18.7425 8.81454 18.7425 8.81454C18.7425 8.81453 18.7425 8.81453 18.7426 8.81453C18.7426 8.81452 18.7426 8.81452 18.7427 8.81451C18.7427 8.81451 18.7427 8.81451 18.7428 8.8145C18.7428 8.8145 18.7429 8.81449 18.7429 8.81449C18.7429 8.81448 18.743 8.81448 18.743 8.81448C18.7431 8.81446 18.7431 8.81446 18.7433 8.81445C18.7434 8.81443 18.7434 8.81443 18.7435 8.81441C18.7436 8.81441 18.7436 8.8144 18.7437 8.8144C18.7437 8.81439 18.7438 8.81439 18.7438 8.81438C18.7438 8.81438 18.7444 8.81431 18.7444 8.8143C18.7445 8.8143 18.7451 8.81422 18.7452 8.81422C18.7452 8.81421 18.7453 8.8142 18.7454 8.81419C18.7454 8.81418 18.7455 8.81418 18.7456 8.81417C18.7456 8.81417 18.746 8.81412 18.746 8.81412C18.7464 8.81407 18.7465 8.81406 18.7469 8.81401C18.7473 8.81396 18.7474 8.81395 18.7479 8.81389C18.7515 8.81346 18.7486 8.8138 18.7526 8.81332C18.7528 8.8133 18.7529 8.81329 18.753 8.81328C18.7531 8.81326 18.7532 8.81325 18.7533 8.81323C18.7535 8.81322 18.7539 8.81316 18.7541 8.81315C18.755 8.81304 18.7546 8.81308 18.7556 8.81297C18.758 8.81267 18.7562 8.81289 18.7588 8.81258C18.7622 8.81218 18.7625 8.81214 18.7663 8.81168C18.7708 8.81114 18.7703 8.8112 18.7752 8.81061C18.777 8.81039 18.7782 8.81025 18.7802 8.81002C18.7828 8.8097 18.7827 8.80971 18.7855 8.80938C18.8122 8.80617 18.8608 8.80034 18.9167 8.79363C18.9508 8.78954 19.0722 8.77497 19.1355 8.76738C19.1686 8.76341 19.3794 8.7381 19.4417 8.73063L19.3583 8.03562L19.2749 7.3406C19.2267 7.34639 19.2365 7.34521 19.1901 7.35077C19.1446 7.35624 19.1546 7.35504 19.1108 7.36029C19.0455 7.36813 19.0267 7.37039 18.9687 7.37735C18.9266 7.3824 18.946 7.38008 18.9058 7.3849C18.8817 7.38778 18.9 7.3856 18.8764 7.38843C18.8706 7.38912 18.8678 7.38945 18.8622 7.39013C18.8621 7.39014 18.8553 7.39095 18.8552 7.39096C18.854 7.39112 18.8496 7.39164 18.8483 7.39179C18.8478 7.39186 18.8472 7.39193 18.8466 7.392C18.8461 7.39206 18.8455 7.39213 18.8449 7.3922C18.8444 7.39227 18.8438 7.39233 18.8432 7.3924C18.8427 7.39247 18.8421 7.39254 18.8416 7.39261C18.8401 7.39279 18.8363 7.39323 18.8348 7.39341C18.8328 7.39365 18.8236 7.39476 18.8217 7.39499C18.8183 7.3954 18.8186 7.39536 18.8152 7.39576C18.8149 7.39581 18.8124 7.3961 18.812 7.39615C18.8115 7.39621 18.811 7.39627 18.8105 7.39634C18.8099 7.3964 18.8094 7.39646 18.8089 7.39653C18.8051 7.39698 18.8001 7.39758 18.7964 7.39802C18.7794 7.40007 18.7651 7.40178 18.7499 7.4036C18.7452 7.40416 18.7329 7.40564 18.7287 7.40615C18.7259 7.40648 18.7112 7.40824 18.7089 7.40852C18.694 7.41031 18.6864 7.41122 18.6733 7.41279C18.6434 7.41639 18.6414 7.41663 18.6187 7.41935C18.6111 7.42027 18.5862 7.42325 18.5858 7.42329C18.582 7.42375 18.5797 7.42403 18.5776 7.42427C18.5771 7.42433 18.5756 7.42452 18.5756 7.42452C18.5753 7.42455 18.5752 7.42456 18.5751 7.42458C18.5751 7.42458 18.5751 7.42459 18.575 7.42459C18.575 7.42459 18.575 7.42459 18.575 7.42459C18.575 7.42459 18.575 7.4246 18.575 7.4246C18.5749 7.4246 18.5749 7.4246 18.5749 7.4246C18.5749 7.4246 18.5749 7.4246 18.5749 7.4246C18.5749 7.4246 18.5749 7.4246 18.5749 7.4246C18.5749 7.4246 18.5749 7.4246 18.6583 8.11962ZM19.3583 8.03562L19.4417 8.73063C19.8955 8.67617 20.4733 8.62104 21.1774 8.56545L21.1223 7.86762L21.0672 7.16979C20.3527 7.2262 19.7544 7.28306 19.2749 7.3406L19.3583 8.03562ZM21.1223 7.86762L21.176 8.56555C21.8849 8.51103 22.6229 8.48362 23.3903 8.48362V7.78362V7.08362C22.5897 7.08362 21.8157 7.11221 21.0686 7.16968L21.1223 7.86762ZM23.3903 7.78362H22.6903V11.8996H23.3903H24.0903V7.78362H23.3903ZM23.3903 11.8996L24.0821 12.0068C24.2721 10.7801 24.6844 9.88992 25.2698 9.27374L24.7623 8.79162L24.2548 8.30949C23.4215 9.18664 22.9192 10.3685 22.6986 11.7924L23.3903 11.8996ZM24.7623 8.79162L25.2695 9.27407C25.8543 8.65927 26.5987 8.34362 27.5623 8.34362V7.64362V6.94362C26.2486 6.94362 25.1263 7.3933 24.2551 8.30917L24.7623 8.79162ZM43.722 18.1716L43.0229 18.2075L43.0234 18.2164L43.0241 18.2253L43.722 18.1716ZM44.058 19.7116L43.4479 20.0548L43.4527 20.0634L43.4578 20.0718L44.058 19.7116ZM45.486 20.0196L45.7253 20.6775L45.7509 20.6682L45.7757 20.6569L45.486 20.0196ZM46.074 19.7396L46.7001 19.4266L46.3871 18.8005L45.761 19.1135L46.074 19.7396ZM46.214 20.0196L46.5955 20.6065L47.1197 20.2658L46.8401 19.7066L46.214 20.0196ZM45.654 20.3836L46.0142 20.9839L46.025 20.9774L46.0355 20.9705L45.654 20.3836ZM44.114 21.0836L43.8703 20.4274L43.864 20.4298L44.114 21.0836ZM41.986 21.4476L41.301 21.5918L41.4181 22.1476H41.986V21.4476ZM41.79 19.8796L42.4877 19.823L42.4877 19.823L41.79 19.8796ZM41.706 17.6956H42.406L41.042 17.4743L41.706 17.6956ZM40.866 19.5156L40.2641 19.1582L40.2599 19.1653L40.2559 19.1724L40.866 19.5156ZM39.494 20.9996L39.8866 21.5792L39.8866 21.5792L39.494 20.9996ZM34.566 20.6636L35.032 20.1412L35.032 20.1412L34.566 20.6636ZM34.342 15.7356L34.8872 16.1748L34.893 16.1674L34.342 15.7356ZM36.946 14.1396L37.1548 14.8078L37.1643 14.8047L36.946 14.1396ZM41.706 13.5516V14.2516H42.406V13.5516H41.706ZM41.482 10.4156L40.7964 10.5568L40.7989 10.5687L40.8017 10.5805L41.482 10.4156ZM40.67 8.93162L40.2004 9.45069L40.2064 9.45611L40.2125 9.46139L40.67 8.93162ZM37.702 8.70762L38.073 9.30122L38.086 9.29311L38.0986 9.28445L37.702 8.70762ZM36.974 9.40762L36.3916 9.01933L36.3824 9.03319L36.3738 9.04747L36.974 9.40762ZM36.526 10.2756L37.1604 10.5716L37.1639 10.564L37.1673 10.5562L36.526 10.2756ZM36.05 11.0036L35.5321 10.5327L35.5297 10.5353L36.05 11.0036ZM35.042 8.95962L35.4902 9.49737L35.4902 9.49737L35.042 8.95962ZM36.778 8.09162L36.588 7.41789L36.5834 7.41922L36.778 8.09162ZM42.35 8.87562L41.903 9.41435L41.9099 9.41996L42.35 8.87562ZM39.55 20.0756L39.0961 19.5427L39.0961 19.5427L39.55 20.0756ZM40.754 18.4236L40.1211 18.1247L40.1176 18.132L40.1144 18.1393L40.754 18.4236ZM41.454 16.2956L42.1404 16.4329L42.1411 16.4297L41.454 16.2956ZM41.706 14.1956L42.4057 14.2162L42.4272 13.4864L41.6972 13.4957L41.706 14.1956ZM38.15 14.7836L37.8808 14.1374L37.8759 14.1395L38.15 14.7836ZM36.246 16.2396L35.6608 15.8556L35.6608 15.8556L36.246 16.2396ZM36.162 19.9916L35.5795 20.38L35.5865 20.3901L36.162 19.9916ZM43.666 12.2636H42.966V15.0916H43.666H44.366V12.2636H43.666ZM43.666 15.0916H42.966C42.966 16.421 42.9847 17.4616 43.0229 18.2075L43.722 18.1716L44.4211 18.1358C44.3847 17.4256 44.366 16.4129 44.366 15.0916H43.666ZM43.722 18.1716L43.0241 18.2253C43.081 18.9654 43.1993 19.6128 43.4479 20.0548L44.058 19.7116L44.6681 19.3684C44.5808 19.2131 44.475 18.8338 44.42 18.1179L43.722 18.1716ZM44.058 19.7116L43.4578 20.0718C43.7567 20.57 44.2409 20.8316 44.814 20.8316V20.1316V19.4316C44.7452 19.4316 44.7189 19.418 44.713 19.4147C44.708 19.4119 44.6876 19.4004 44.6583 19.3515L44.058 19.7116ZM44.814 20.1316V20.8316C45.1293 20.8316 45.4352 20.7829 45.7253 20.6775L45.486 20.0196L45.2468 19.3618C45.1262 19.4056 44.9841 19.4316 44.814 19.4316V20.1316ZM45.486 20.0196L45.7757 20.6569C45.9883 20.5602 46.1921 20.4632 46.3871 20.3657L46.074 19.7396L45.761 19.1135C45.5826 19.2027 45.3945 19.2923 45.1964 19.3824L45.486 20.0196ZM46.074 19.7396L45.4479 20.0527L45.5879 20.3327L46.214 20.0196L46.8401 19.7066L46.7001 19.4266L46.074 19.7396ZM46.214 20.0196C45.8325 19.4327 45.8325 19.4327 45.8325 19.4327C45.8325 19.4327 45.8325 19.4327 45.8325 19.4327C45.8325 19.4327 45.8325 19.4327 45.8325 19.4327C45.8325 19.4327 45.8325 19.4327 45.8325 19.4327C45.8325 19.4327 45.8325 19.4328 45.8325 19.4328C45.8325 19.4328 45.8324 19.4328 45.8324 19.4328C45.8324 19.4328 45.8324 19.4328 45.8324 19.4328C45.8324 19.4328 45.8323 19.4329 45.8322 19.4329C45.8322 19.4329 45.832 19.433 45.832 19.4331C45.8319 19.4331 45.8308 19.4338 45.8304 19.4341C45.8296 19.4346 45.8287 19.4352 45.8276 19.4359C45.8275 19.436 45.8275 19.436 45.8274 19.436C45.8273 19.4361 45.8273 19.4361 45.8272 19.4362C45.8271 19.4362 45.8271 19.4363 45.827 19.4363C45.8269 19.4364 45.8268 19.4364 45.8268 19.4365C45.8267 19.4365 45.826 19.437 45.8258 19.4371C45.8254 19.4373 45.8243 19.438 45.8238 19.4384C45.8237 19.4384 45.8034 19.4516 45.7975 19.4555C45.793 19.4584 45.7641 19.4772 45.7538 19.4839C45.7532 19.4843 45.751 19.4857 45.7505 19.486C45.7502 19.4862 45.7499 19.4864 45.7496 19.4866C45.7494 19.4868 45.7491 19.487 45.7488 19.4871C45.7485 19.4873 45.7482 19.4875 45.7479 19.4877C45.7477 19.4879 45.7474 19.4881 45.7471 19.4882C45.7461 19.4889 45.7412 19.4921 45.7401 19.4928C45.7388 19.4936 45.7379 19.4943 45.7365 19.4951C45.7362 19.4953 45.7359 19.4955 45.7356 19.4957C45.7353 19.4959 45.735 19.4961 45.7347 19.4963C45.7344 19.4965 45.7341 19.4967 45.7338 19.4969C45.7335 19.4971 45.7332 19.4973 45.7329 19.4975C45.7323 19.4979 45.726 19.502 45.7254 19.5024C45.7247 19.5028 45.7105 19.512 45.7095 19.5127C45.708 19.5137 45.6944 19.5225 45.6925 19.5237C45.6922 19.5239 45.6918 19.5242 45.6914 19.5244C45.6911 19.5247 45.6907 19.5249 45.6903 19.5251C45.69 19.5254 45.6896 19.5256 45.6892 19.5259C45.6889 19.5261 45.6885 19.5263 45.6881 19.5266C45.6866 19.5276 45.6852 19.5285 45.6837 19.5295C45.6813 19.531 45.6769 19.5339 45.6745 19.5354C45.6741 19.5357 45.6737 19.5359 45.6733 19.5362C45.6729 19.5364 45.6725 19.5367 45.6722 19.537C45.6718 19.5372 45.6714 19.5375 45.671 19.5377C45.6706 19.538 45.6702 19.5382 45.6698 19.5385C45.6687 19.5392 45.6686 19.5393 45.6674 19.54C45.6674 19.5401 45.6651 19.5415 45.6651 19.5416C45.6576 19.5464 45.6629 19.543 45.6554 19.5479C45.654 19.5488 45.6518 19.5502 45.6504 19.5511C45.6487 19.5522 45.6471 19.5532 45.6454 19.5544C45.6441 19.5552 45.6365 19.5601 45.6351 19.561C45.6347 19.5613 45.6342 19.5616 45.6338 19.5619C45.6334 19.5622 45.6329 19.5624 45.6325 19.5627C45.6321 19.563 45.6316 19.5633 45.6312 19.5636C45.6308 19.5639 45.6303 19.5641 45.6299 19.5644C45.6294 19.5647 45.629 19.565 45.6286 19.5653C45.6281 19.5656 45.6277 19.5659 45.6272 19.5661C45.6268 19.5664 45.6264 19.5667 45.6259 19.567C45.6255 19.5673 45.625 19.5676 45.6246 19.5679C45.6241 19.5682 45.6237 19.5685 45.6233 19.5687C45.6228 19.569 45.6224 19.5693 45.6219 19.5696C45.6215 19.5699 45.621 19.5702 45.6206 19.5705C45.6201 19.5708 45.6197 19.5711 45.6192 19.5714C45.6189 19.5716 45.6168 19.5729 45.6165 19.5731C45.6161 19.5734 45.6156 19.5737 45.6152 19.574C45.6147 19.5743 45.6142 19.5746 45.6138 19.5749C45.6119 19.5761 45.5252 19.6325 45.5175 19.6375C45.4761 19.6644 45.4511 19.6806 45.4038 19.7114C45.3193 19.7663 45.3629 19.738 45.2725 19.7967L45.654 20.3836L46.0355 20.9705C46.0389 20.9683 46.1014 20.9277 46.1033 20.9264C46.1265 20.9114 46.145 20.8993 46.1668 20.8852C46.1701 20.8831 46.1787 20.8774 46.1819 20.8754C46.1908 20.8696 46.188 20.8714 46.1968 20.8657C46.1975 20.8652 46.2036 20.8613 46.2042 20.8609C46.2062 20.8596 46.2095 20.8574 46.2115 20.8562C46.2146 20.8541 46.2228 20.8488 46.2258 20.8468C46.2283 20.8452 46.2795 20.8119 46.2805 20.8113C46.3533 20.764 46.4061 20.7297 46.4555 20.6975C46.4856 20.678 46.4925 20.6735 46.5168 20.6577C46.5179 20.657 46.5189 20.6563 46.52 20.6556C46.5204 20.6554 46.5228 20.6538 46.5232 20.6535C46.5243 20.6528 46.5283 20.6502 46.5294 20.6495C46.5346 20.6461 46.536 20.6452 46.5408 20.6421C46.5477 20.6376 46.5551 20.6328 46.5605 20.6293C46.5614 20.6287 46.564 20.627 46.5648 20.6265C46.5667 20.6252 46.5668 20.6252 46.5687 20.6239C46.5697 20.6233 46.5715 20.6221 46.5724 20.6215C46.5735 20.6209 46.5749 20.62 46.5758 20.6193C46.576 20.6192 46.5765 20.6189 46.5766 20.6188C46.5768 20.6187 46.5769 20.6186 46.577 20.6185C46.5772 20.6185 46.5773 20.6184 46.5774 20.6183C46.5781 20.6179 46.5776 20.6182 46.5782 20.6178C46.5786 20.6175 46.5786 20.6175 46.579 20.6173C46.5792 20.6171 46.5802 20.6165 46.5804 20.6163C46.5806 20.6162 46.5807 20.6162 46.5808 20.6161C46.5809 20.616 46.581 20.6159 46.5812 20.6159C46.5813 20.6158 46.5814 20.6157 46.5815 20.6156C46.5816 20.6156 46.5817 20.6155 46.5819 20.6154C46.5837 20.6142 46.5853 20.6132 46.5868 20.6122C46.5889 20.6108 46.5927 20.6084 46.5933 20.6079C46.5934 20.6079 46.5943 20.6073 46.5943 20.6073C46.5944 20.6072 46.5949 20.6069 46.595 20.6069C46.5951 20.6068 46.5953 20.6067 46.5954 20.6066C46.5954 20.6066 46.5955 20.6066 46.5955 20.6065C46.5955 20.6065 46.5955 20.6065 46.5955 20.6065C46.5955 20.6065 46.5955 20.6065 46.5955 20.6065C46.5955 20.6065 46.5955 20.6065 46.5955 20.6065C46.5955 20.6065 46.5955 20.6065 46.214 20.0196ZM45.654 20.3836L45.2939 19.7834C44.9728 19.976 44.5042 20.192 43.8703 20.4274L44.114 21.0836L44.3578 21.7398C45.0306 21.4899 45.5886 21.2392 46.0142 20.9839L45.654 20.3836ZM44.114 21.0836L43.864 20.4298C43.3205 20.6376 42.6975 20.7476 41.986 20.7476V21.4476V22.1476C42.8425 22.1476 43.6383 22.0149 44.364 21.7375L44.114 21.0836ZM41.986 21.4476L42.671 21.3034C42.6057 20.993 42.5431 20.5057 42.4877 19.823L41.79 19.8796L41.0923 19.9362C41.149 20.6349 41.2171 21.1929 41.301 21.5918L41.986 21.4476ZM41.79 19.8796L42.4877 19.823C42.4334 19.153 42.406 18.444 42.406 17.6956H41.706H41.006C41.006 18.4779 41.0346 19.2249 41.0923 19.9362L41.79 19.8796ZM41.706 17.6956L41.042 17.4743C40.8535 18.0397 40.595 18.6009 40.2641 19.1582L40.866 19.5156L41.4679 19.873C41.8464 19.2356 42.1479 18.5836 42.3701 17.917L41.706 17.6956ZM40.866 19.5156L40.2559 19.1724C39.9742 19.6733 39.5921 20.0877 39.1014 20.4201L39.494 20.9996L39.8866 21.5792C40.5533 21.1275 41.0858 20.5526 41.4761 19.8588L40.866 19.5156ZM39.494 20.9996L39.1014 20.4201C38.6696 20.7126 38.0714 20.8876 37.254 20.8876V21.5876V22.2876C38.266 22.2876 39.1612 22.0706 39.8866 21.5792L39.494 20.9996ZM37.254 21.5876V20.8876C36.2901 20.8876 35.5708 20.6218 35.032 20.1412L34.566 20.6636L34.1001 21.186C34.9426 21.9374 36.0153 22.2876 37.254 22.2876V21.5876ZM34.566 20.6636L35.032 20.1412C34.5186 19.6833 34.23 19.0309 34.23 18.0876H33.53H32.83C32.83 19.347 33.2322 20.4119 34.1001 21.186L34.566 20.6636ZM33.53 18.0876H34.23C34.23 17.3448 34.4501 16.7173 34.8872 16.1747L34.342 15.7356L33.7969 15.2965C33.1513 16.098 32.83 17.0385 32.83 18.0876H33.53ZM34.342 15.7356L34.893 16.1674C35.3168 15.6267 36.0401 15.1561 37.1548 14.8078L36.946 14.1396L36.7372 13.4715C35.4626 13.8698 34.4499 14.4632 33.7911 15.3038L34.342 15.7356ZM36.946 14.1396L37.1643 14.8047C38.2601 14.4452 39.7641 14.2516 41.706 14.2516V13.5516V12.8516C39.6906 12.8516 38.0213 13.0501 36.7278 13.4745L36.946 14.1396ZM41.706 13.5516H42.406V12.5436H41.706H41.006V13.5516H41.706ZM41.706 12.5436H42.406C42.406 11.6994 42.3277 10.9328 42.1623 10.2507L41.482 10.4156L40.8017 10.5805C40.9351 11.1305 41.006 11.7825 41.006 12.5436H41.706ZM41.482 10.4156L42.1677 10.2745C42.0121 9.51897 41.6765 8.87588 41.1276 8.40184L40.67 8.93162L40.2125 9.46139C40.4849 9.69668 40.6906 10.0429 40.7964 10.5568L41.482 10.4156ZM40.67 8.93162L41.1397 8.41254C40.5716 7.89857 39.7962 7.69962 38.934 7.69962V8.39962V9.09962C39.6025 9.09962 39.9845 9.25533 40.2004 9.45069L40.67 8.93162ZM38.934 8.39962V7.69962C38.3296 7.69962 37.7619 7.81696 37.3055 8.13079L37.702 8.70762L38.0986 9.28445C38.2395 9.18761 38.4931 9.09962 38.934 9.09962V8.39962ZM37.702 8.70762L37.331 8.11402C36.9521 8.35083 36.6359 8.65281 36.3916 9.01933L36.974 9.40762L37.5565 9.79591C37.6855 9.60242 37.8546 9.43774 38.073 9.30122L37.702 8.70762ZM36.974 9.40762L36.3738 9.04747C36.1904 9.35305 36.0274 9.66896 35.8847 9.99504L36.526 10.2756L37.1673 10.5562C37.286 10.2849 37.4216 10.0222 37.5743 9.76776L36.974 9.40762ZM36.526 10.2756L35.8917 9.9796C35.7875 10.2029 35.6663 10.385 35.5321 10.5327L36.05 11.0036L36.568 11.4745C36.8071 11.2115 37.0033 10.9083 37.1604 10.5716L36.526 10.2756ZM36.05 11.0036L35.5297 10.5353C35.5278 10.5375 35.4969 10.5836 35.322 10.5836V11.2836V11.9836C35.7818 11.9836 36.2362 11.8431 36.5703 11.4719L36.05 11.0036ZM35.322 11.2836V10.5836C35.1126 10.5836 35.0841 10.5317 35.103 10.5506C35.1219 10.5696 35.07 10.541 35.07 10.3316H34.37H33.67C33.67 10.7569 33.7768 11.2043 34.1131 11.5406C34.4493 11.8768 34.8968 11.9836 35.322 11.9836V11.2836ZM34.37 10.3316H35.07C35.07 10.0156 35.1877 9.74942 35.4902 9.49737L35.042 8.95962L34.5939 8.42186C34.0004 8.91648 33.67 9.56492 33.67 10.3316H34.37ZM35.042 8.95962L35.4902 9.49737C35.8469 9.20008 36.3324 8.94936 36.9727 8.76401L36.778 8.09162L36.5834 7.41922C35.805 7.64454 35.1332 7.97248 34.5939 8.42186L35.042 8.95962ZM36.778 8.09162L36.9681 8.76533C37.632 8.57807 38.3239 8.48362 39.046 8.48362V7.78362V7.08362C38.2001 7.08362 37.3801 7.1945 36.588 7.4179L36.778 8.09162ZM39.046 7.78362V8.48362C40.236 8.48362 41.1713 8.80709 41.903 9.41431L42.35 8.87562L42.797 8.33692C41.7741 7.48814 40.5067 7.08362 39.046 7.08362V7.78362ZM42.35 8.87562L41.9099 9.41996C42.5674 9.95152 42.966 10.8421 42.966 12.2636H43.666H44.366C44.366 10.5864 43.8873 9.21838 42.7901 8.33128L42.35 8.87562ZM37.702 20.7196V21.4196C38.5786 21.4196 39.3604 21.1567 40.004 20.6085L39.55 20.0756L39.0961 19.5427C38.7317 19.8532 38.2814 20.0196 37.702 20.0196V20.7196ZM39.55 20.0756L40.004 20.6085C40.5961 20.104 41.0573 19.4649 41.3937 18.7079L40.754 18.4236L40.1144 18.1393C39.8535 18.7263 39.5119 19.1885 39.0961 19.5427L39.55 20.0756ZM40.754 18.4236L41.387 18.7225C41.7293 17.9978 41.9802 17.234 42.1404 16.4329L41.454 16.2956L40.7676 16.1583C40.6292 16.8505 40.4135 17.5055 40.1211 18.1247L40.754 18.4236ZM41.454 16.2956L42.1411 16.4297C42.2961 15.635 42.3857 14.8964 42.4057 14.2162L41.706 14.1956L41.0063 14.175C40.989 14.7642 40.9106 15.4256 40.767 16.1616L41.454 16.2956ZM41.706 14.1956L41.6972 13.4957C40.1748 13.5149 38.8907 13.7167 37.8808 14.1375L38.15 14.7836L38.4193 15.4298C39.2013 15.1039 40.2879 14.9136 41.7149 14.8956L41.706 14.1956ZM38.15 14.7836L37.8759 14.1395C36.9132 14.5492 36.1501 15.11 35.6608 15.8556L36.246 16.2396L36.8313 16.6237C37.126 16.1746 37.6322 15.7647 38.4241 15.4277L38.15 14.7836ZM36.246 16.2396L35.6608 15.8556C35.1945 16.5661 34.958 17.3528 34.958 18.1996H35.658H36.358C36.358 17.6278 36.5136 17.1078 36.8313 16.6237L36.246 16.2396ZM35.658 18.1996H34.958C34.958 19.0085 35.1566 19.7454 35.5796 20.3799L36.162 19.9916L36.7445 19.6033C36.4955 19.2299 36.358 18.7721 36.358 18.1996H35.658ZM36.162 19.9916L35.5865 20.3901C36.0769 21.0984 36.8266 21.4196 37.702 21.4196V20.7196V20.0196C37.1961 20.0196 36.9192 19.8555 36.7376 19.5932L36.162 19.9916ZM58.515 8.39962L57.8245 8.5147L57.922 9.09962H58.515V8.39962ZM58.459 8.06362V7.36362H57.6327L57.7685 8.1787L58.459 8.06362ZM63.723 8.06362L64.4135 8.17869L64.5493 7.36362H63.723V8.06362ZM63.667 8.39962V9.09962H64.26L64.3575 8.51469L63.667 8.39962ZM62.715 8.53962L62.4637 7.88627L62.4637 7.88627L62.715 8.53962ZM61.343 10.7796L61.9999 11.0216L62.0018 11.0161L61.343 10.7796ZM60.335 13.7196L61 13.9381L61.0001 13.938L60.335 13.7196ZM57.815 21.3916V22.0916H58.3219L58.48 21.6101L57.815 21.3916ZM56.163 21.3916L55.5112 21.6468L55.6853 22.0916H56.163V21.3916ZM52.523 12.0956L53.1748 11.8404L53.1744 11.8393L52.523 12.0956ZM51.291 9.60362L50.7214 10.0105L50.7214 10.0105L51.291 9.60362ZM50.199 8.62362L49.9274 9.26876L49.942 9.27495L49.957 9.28046L50.199 8.62362ZM49.079 8.39962L48.3885 8.5147L48.486 9.09962H49.079V8.39962ZM49.023 8.06362V7.36362H48.1967L48.3325 8.1787L49.023 8.06362ZM55.967 8.06362L56.6575 8.1787L56.7933 7.36362H55.967V8.06362ZM55.911 8.39962V9.09962H56.504L56.6015 8.5147L55.911 8.39962ZM54.539 8.73562L54.9912 9.26999L55.0027 9.26023L55.0138 9.24998L54.539 8.73562ZM54.539 11.5916L53.8703 11.7986L53.8703 11.7986L54.539 11.5916ZM55.491 14.2516L54.8402 14.5095L54.8404 14.5099L55.491 14.2516ZM57.647 19.6836L56.9964 19.9419L57.7126 21.7464L58.3127 19.9L57.647 19.6836ZM59.831 12.9636L59.1669 12.7423L59.1653 12.7473L59.831 12.9636ZM60.335 11.0876L59.6476 10.9554L59.6455 10.9662L59.6438 10.977L60.335 11.0876ZM58.515 8.39962L59.2055 8.28454L59.1495 7.94854L58.459 8.06362L57.7685 8.1787L57.8245 8.5147L58.515 8.39962ZM58.459 8.06362V8.76362H63.723V8.06362V7.36362H58.459V8.06362ZM63.723 8.06362L63.0325 7.94854L62.9765 8.28454L63.667 8.39962L64.3575 8.51469L64.4135 8.17869L63.723 8.06362ZM63.667 8.39962V7.69962C63.2284 7.69962 62.8165 7.75059 62.4637 7.88627L62.715 8.53962L62.9663 9.19296C63.0988 9.14197 63.3216 9.09962 63.667 9.09962V8.39962ZM62.715 8.53962L62.4637 7.88627C62.0198 8.05701 61.6922 8.4153 61.4457 8.8186L62.043 9.18362L62.6403 9.54863C62.8045 9.27993 62.9249 9.20889 62.9663 9.19296L62.715 8.53962ZM62.043 9.18362L61.4457 8.8186C61.2019 9.21753 60.9493 9.80444 60.6842 10.5431L61.343 10.7796L62.0018 11.0161C62.2593 10.2988 62.4734 9.8217 62.6403 9.54863L62.043 9.18362ZM61.343 10.7796L60.6862 10.5376C60.4206 11.2584 60.0816 12.2475 59.6699 13.5012L60.335 13.7196L61.0001 13.938C61.4097 12.6904 61.7427 11.7195 61.9998 11.0216L61.343 10.7796ZM60.335 13.7196L59.67 13.5012L57.15 21.1732L57.815 21.3916L58.48 21.6101L61 13.9381L60.335 13.7196ZM57.815 21.3916V20.6916H56.163V21.3916V22.0916H57.815V21.3916ZM56.163 21.3916L56.8148 21.1364L53.1748 11.8404L52.523 12.0956L51.8712 12.3508L55.5112 21.6468L56.163 21.3916ZM52.523 12.0956L53.1744 11.8393C52.7207 10.6861 52.285 9.79088 51.8606 9.19675L51.291 9.60362L50.7214 10.0105C51.0437 10.4617 51.4293 11.2278 51.8716 12.3519L52.523 12.0956ZM51.291 9.60362L51.8606 9.19675C51.4566 8.63116 50.9909 8.16939 50.441 7.96678L50.199 8.62362L49.957 9.28046C50.1164 9.33918 50.3787 9.53074 50.7214 10.0105L51.291 9.60362ZM50.199 8.62362L50.4706 7.97847C50.0284 7.79225 49.5625 7.69962 49.079 7.69962V8.39962V9.09962C49.3795 9.09962 49.6603 9.15632 49.9274 9.26876L50.199 8.62362ZM49.079 8.39962L49.7695 8.28454L49.7135 7.94854L49.023 8.06362L48.3325 8.1787L48.3885 8.5147L49.079 8.39962ZM49.023 8.06362V8.76362H55.967V8.06362V7.36362H49.023V8.06362ZM55.967 8.06362L55.2765 7.94854L55.2205 8.28454L55.911 8.39962L56.6015 8.5147L56.6575 8.1787L55.967 8.06362ZM55.911 8.39962V7.69962C55.2179 7.69962 54.517 7.80332 54.0642 8.22125L54.539 8.73562L55.0138 9.24998C55.0464 9.21992 55.2601 9.09962 55.911 9.09962V8.39962ZM54.539 8.73562L54.0868 8.20125C53.6436 8.57628 53.475 9.10757 53.475 9.65962H54.175H54.875C54.875 9.39033 54.949 9.30562 54.9912 9.26999L54.539 8.73562ZM54.175 9.65962H53.475C53.475 10.2638 53.6182 10.984 53.8703 11.7986L54.539 11.5916L55.2077 11.3846C54.9745 10.6312 54.875 10.0634 54.875 9.65962H54.175ZM54.539 11.5916L53.8703 11.7986C54.1196 12.6039 54.4434 13.508 54.8402 14.5095L55.491 14.2516L56.1418 13.9938C55.7546 13.0165 55.4438 12.1473 55.2077 11.3846L54.539 11.5916ZM55.491 14.2516L54.8404 14.5099L56.9964 19.9419L57.647 19.6836L58.2976 19.4254L56.1416 13.9934L55.491 14.2516ZM57.647 19.6836L58.3127 19.9L60.4967 13.18L59.831 12.9636L59.1653 12.7473L56.9813 19.4673L57.647 19.6836ZM59.831 12.9636L60.4951 13.185C60.761 12.3873 60.9427 11.7203 61.0262 11.1982L60.335 11.0876L59.6438 10.977C59.578 11.3883 59.4237 11.9719 59.1669 12.7423L59.831 12.9636ZM60.335 11.0876L61.0224 11.2198C61.1194 10.7152 61.175 10.274 61.175 9.91162H60.475H59.775C59.775 10.1466 59.7372 10.4894 59.6476 10.9554L60.335 11.0876ZM60.475 9.91162H61.175C61.175 9.30454 60.9789 8.75359 60.55 8.32464L60.055 8.81962L59.56 9.31459C59.6911 9.44565 59.775 9.62269 59.775 9.91162H60.475ZM60.055 8.81962L60.55 8.32464C60.0624 7.83705 59.3004 7.69962 58.515 7.69962V8.39962V9.09962C59.2229 9.09962 59.4876 9.24218 59.56 9.31459L60.055 8.81962ZM78.6816 14.2236V14.9236H79.3816V14.2236H78.6816ZM69.4976 14.2236V13.5236H68.7976V14.2236H69.4976ZM70.1136 18.1436L70.7499 17.852L70.7499 17.852L70.1136 18.1436ZM76.1616 20.2716L76.4549 20.9072L76.4619 20.9039L76.1616 20.2716ZM77.9256 18.5356L78.255 17.918L77.6381 17.589L77.3083 18.2055L77.9256 18.5356ZM78.3456 18.7596L78.9694 19.0772L79.281 18.4652L78.675 18.142L78.3456 18.7596ZM76.2456 20.9436L75.9379 20.3148L75.9325 20.3175L76.2456 20.9436ZM70.5056 20.8316L70.1635 21.4424L70.173 21.4476L70.5056 20.8316ZM68.2376 18.5076L67.6278 18.8513L67.6278 18.8513L68.2376 18.5076ZM68.0696 11.2276L68.7088 11.513L68.7088 11.513L68.0696 11.2276ZM70.0576 8.73562L70.4656 9.3044L70.4678 9.30277L70.0576 8.73562ZM76.2456 8.65162L76.6549 8.08379L76.6549 8.08379L76.2456 8.65162ZM70.6456 9.79962L71.2417 10.1665L71.2417 10.1665L70.6456 9.79962ZM69.5536 13.4116L68.8564 13.3482L68.787 14.1116H69.5536V13.4116ZM76.5256 13.4116V14.1116H77.2516L77.2251 13.386L76.5256 13.4116ZM75.6856 9.74362L75.0696 10.0762L75.0725 10.0814L75.6856 9.74362ZM78.6816 14.2236V13.5236H69.4976V14.2236V14.9236H78.6816V14.2236ZM69.4976 14.2236H68.7976V14.6996H69.4976H70.1976V14.2236H69.4976ZM69.4976 14.6996H68.7976C68.7976 16.161 69.0108 17.4177 69.4772 18.4353L70.1136 18.1436L70.7499 17.852C70.3949 17.0775 70.1976 16.0383 70.1976 14.6996H69.4976ZM70.1136 18.1436L69.4772 18.4353C69.9307 19.4246 70.5512 20.2043 71.3607 20.7215L71.7376 20.1316L72.1144 19.5417C71.5799 19.2002 71.1178 18.6546 70.7499 17.852L70.1136 18.1436ZM71.7376 20.1316L71.3607 20.7215C72.1403 21.2196 72.9889 21.4756 73.8936 21.4756V20.7756V20.0756C73.2676 20.0756 72.6789 19.9023 72.1144 19.5417L71.7376 20.1316ZM73.8936 20.7756V21.4756C74.7812 21.4756 75.6371 21.2846 76.4549 20.9072L76.1616 20.2716L75.8682 19.636C75.23 19.9306 74.5739 20.0756 73.8936 20.0756V20.7756ZM76.1616 20.2716L76.4619 20.9039C77.3575 20.4785 78.0504 19.7864 78.5428 18.8658L77.9256 18.5356L77.3083 18.2055C76.9421 18.8902 76.4589 19.3554 75.8612 19.6393L76.1616 20.2716ZM77.9256 18.5356L77.5961 19.1533L78.0161 19.3773L78.3456 18.7596L78.675 18.142L78.255 17.918L77.9256 18.5356ZM78.3456 18.7596L77.7217 18.442C77.2552 19.3586 76.6556 19.9636 75.9379 20.3149L76.2456 20.9436L76.5532 21.5724C77.5902 21.0649 78.3906 20.214 78.9694 19.0772L78.3456 18.7596ZM76.2456 20.9436L75.9325 20.3175C75.1741 20.6967 74.3576 20.8876 73.4736 20.8876V21.5876V22.2876C74.5681 22.2876 75.5997 22.0492 76.5586 21.5697L76.2456 20.9436ZM73.4736 21.5876V20.8876C72.5461 20.8876 71.6709 20.6654 70.8382 20.2157L70.5056 20.8316L70.173 21.4476C71.2069 22.0059 72.3103 22.2876 73.4736 22.2876V21.5876ZM70.5056 20.8316L70.8476 20.2209C70.0375 19.7672 69.3696 19.0904 68.8474 18.1639L68.2376 18.5076L67.6278 18.8513C68.2629 19.9781 69.1069 20.8507 70.1635 21.4424L70.5056 20.8316ZM68.2376 18.5076L68.8474 18.1639C68.3423 17.2678 68.0696 16.1245 68.0696 14.6996H67.3696H66.6696C66.6696 16.2987 66.9755 17.6941 67.6278 18.8513L68.2376 18.5076ZM67.3696 14.6996H68.0696C68.0696 13.5179 68.2863 12.4592 68.7088 11.513L68.0696 11.2276L67.4304 10.9423C66.9194 12.0867 66.6696 13.3427 66.6696 14.6996H67.3696ZM68.0696 11.2276L68.7088 11.513C69.1292 10.5712 69.7161 9.8421 70.4656 9.30439L70.0576 8.73562L69.6495 8.16684C68.6817 8.86113 67.9433 9.79338 67.4304 10.9423L68.0696 11.2276ZM70.0576 8.73562L70.4678 9.30277C71.2098 8.76607 72.1158 8.48362 73.2216 8.48362V7.78362V7.08362C71.8633 7.08362 70.66 7.43583 69.6473 8.16846L70.0576 8.73562ZM73.2216 7.78362V8.48362C74.3217 8.48362 75.1775 8.74456 75.8362 9.21944L76.2456 8.65162L76.6549 8.08379C75.7083 7.40134 74.548 7.08362 73.2216 7.08362V7.78362ZM76.2456 8.65162L75.8362 9.21944C76.5281 9.71822 77.0568 10.3877 77.4209 11.2484L78.0656 10.9756L78.7102 10.7029C78.253 9.62216 77.5684 8.74234 76.6549 8.08379L76.2456 8.65162ZM78.0656 10.9756L77.4209 11.2484C77.7905 12.122 77.9816 13.1102 77.9816 14.2236H78.6816H79.3816C79.3816 12.9477 79.162 11.7706 78.7102 10.7029L78.0656 10.9756ZM73.2496 8.34362V7.64362C71.8675 7.64362 70.774 8.2553 70.0494 9.43275L70.6456 9.79962L71.2417 10.1665C71.7118 9.4026 72.3543 9.04362 73.2496 9.04362V8.34362ZM70.6456 9.79962L70.0494 9.43275C69.3824 10.5166 68.9943 11.8312 68.8564 13.3482L69.5536 13.4116L70.2507 13.475C70.3741 12.1174 70.714 11.024 71.2417 10.1665L70.6456 9.79962ZM69.5536 13.4116V14.1116H76.5256V13.4116V12.7116H69.5536V13.4116ZM76.5256 13.4116L77.2251 13.386C77.1668 11.7931 76.8743 10.4505 76.2986 9.40579L75.6856 9.74362L75.0725 10.0814C75.5048 10.866 75.7723 11.9688 75.826 13.4372L76.5256 13.4116ZM75.6856 9.74362L76.3015 9.41101C75.9961 8.84542 75.5806 8.39315 75.0474 8.08671C74.5162 7.78144 73.9079 7.64362 73.2496 7.64362V8.34362V9.04362C73.7112 9.04362 74.0689 9.13913 74.3498 9.30053C74.6285 9.46075 74.871 9.70848 75.0696 10.0762L75.6856 9.74362ZM88.0095 0.699615H88.7095V-0.00038451H88.0095V0.699615ZM88.0655 18.8996L87.3668 18.942L87.3669 18.9433L88.0655 18.8996ZM88.3455 20.2436L87.7194 20.5567L87.727 20.5719L87.7354 20.5868L88.3455 20.2436ZM89.0735 20.8316L89.271 20.1601L89.271 20.1601L89.0735 20.8316ZM90.3895 20.9716L91.08 20.8565L90.9825 20.2716H90.3895V20.9716ZM90.4455 21.3076V22.0076H91.2718L91.136 21.1925L90.4455 21.3076ZM83.5855 21.3076L82.895 21.1925L82.7592 22.0076H83.5855V21.3076ZM83.6415 20.9716V20.2716H83.0485L82.951 20.8565L83.6415 20.9716ZM84.9855 20.8316L84.7981 20.1571L84.788 20.1601L84.9855 20.8316ZM85.7135 20.2436L85.0874 19.9306L85.0874 19.9306L85.7135 20.2436ZM85.9935 18.8996L86.6921 18.9433L86.6922 18.942L85.9935 18.8996ZM85.9935 3.33162L86.6921 3.28795L86.6921 3.28795L85.9935 3.33162ZM85.7135 2.01562L85.0959 2.34503L85.0959 2.34503L85.7135 2.01562ZM84.9855 1.48362L84.788 2.15517L84.8106 2.16183L84.8336 2.16695L84.9855 1.48362ZM83.6415 1.34362L82.9528 1.46884L83.0573 2.04362H83.6415V1.34362ZM83.5855 1.03562L83.4909 0.342035L82.7659 0.440903L82.8968 1.16084L83.5855 1.03562ZM84.2015 0.951616L84.1069 0.258034L84.1069 0.258035L84.2015 0.951616ZM85.8255 0.783616L85.7689 0.085904L85.7674 0.0860341L85.8255 0.783616ZM88.0095 0.699615H87.3095V16.4356H88.0095H88.7095V0.699615H88.0095ZM88.0095 16.4356H87.3095C87.3095 17.4685 87.3282 18.3057 87.3668 18.942L88.0655 18.8996L88.7642 18.8573C88.7281 18.2615 88.7095 17.4561 88.7095 16.4356H88.0095ZM88.0655 18.8996L87.3669 18.9433C87.4061 19.5718 87.507 20.1319 87.7194 20.5567L88.3455 20.2436L88.9716 19.9306C88.8853 19.758 88.7995 19.4221 88.7641 18.856L88.0655 18.8996ZM88.3455 20.2436L87.7354 20.5868C87.9893 21.0382 88.3767 21.3563 88.876 21.5032L89.0735 20.8316L89.271 20.1601C89.1356 20.1202 89.0377 20.0464 88.9556 19.9004L88.3455 20.2436ZM89.0735 20.8316L88.876 21.5032C89.2867 21.624 89.8021 21.6716 90.3895 21.6716V20.9716V20.2716C89.8569 20.2716 89.495 20.2259 89.271 20.1601L89.0735 20.8316ZM90.3895 20.9716L89.699 21.0867L89.755 21.4227L90.4455 21.3076L91.136 21.1925L91.08 20.8565L90.3895 20.9716ZM90.4455 21.3076V20.6076H83.5855V21.3076V22.0076H90.4455V21.3076ZM83.5855 21.3076L84.276 21.4227L84.332 21.0867L83.6415 20.9716L82.951 20.8565L82.895 21.1925L83.5855 21.3076ZM83.6415 20.9716V21.6716C84.245 21.6716 84.7709 21.6244 85.183 21.5032L84.9855 20.8316L84.788 20.1601C84.5654 20.2255 84.1953 20.2716 83.6415 20.2716V20.9716ZM84.9855 20.8316L85.1728 21.5061C85.69 21.3624 86.0974 21.0411 86.3396 20.5567L85.7135 20.2436L85.0874 19.9306C85.031 20.0434 84.9529 20.1142 84.7981 20.1572L84.9855 20.8316ZM85.7135 20.2436L86.3396 20.5567C86.552 20.1319 86.6528 19.5718 86.6921 18.9433L85.9935 18.8996L85.2949 18.856C85.2595 19.4221 85.1737 19.758 85.0874 19.9306L85.7135 20.2436ZM85.9935 18.8996L86.6922 18.942C86.7308 18.3057 86.7495 17.4685 86.7495 16.4356H86.0495H85.3495C85.3495 17.4561 85.3309 18.2615 85.2948 18.8573L85.9935 18.8996ZM86.0495 16.4356H86.7495V5.73962H86.0495H85.3495V16.4356H86.0495ZM86.0495 5.73962H86.7495C86.7495 4.72543 86.7308 3.90629 86.6921 3.28795L85.9935 3.33162L85.2949 3.37528C85.3309 3.95161 85.3495 4.7378 85.3495 5.73962H86.0495ZM85.9935 3.33162L86.6921 3.28795C86.6531 2.66378 86.5529 2.10201 86.3311 1.6862L85.7135 2.01562L85.0959 2.34503C85.1728 2.48922 85.2592 2.80479 85.2949 3.37528L85.9935 3.33162ZM85.7135 2.01562L86.3311 1.68621C86.0768 1.20931 85.6537 0.915034 85.1373 0.800286L84.9855 1.48362L84.8336 2.16695C84.9893 2.20153 85.0515 2.26192 85.0959 2.34503L85.7135 2.01562ZM84.9855 1.48362L85.183 0.812062C84.7709 0.690847 84.245 0.643616 83.6415 0.643616V1.34362V2.04362C84.1953 2.04362 84.5654 2.08972 84.788 2.15517L84.9855 1.48362ZM83.6415 1.34362L84.3302 1.2184L84.2742 0.910396L83.5855 1.03562L82.8968 1.16084L82.9528 1.46884L83.6415 1.34362ZM83.5855 1.03562C83.6801 1.7292 83.6801 1.7292 83.6801 1.7292C83.6801 1.7292 83.6801 1.7292 83.6801 1.7292C83.6801 1.72919 83.6801 1.72919 83.6801 1.72919C83.6801 1.72919 83.6802 1.72918 83.6802 1.72918C83.6803 1.72916 83.6803 1.72917 83.6804 1.72915C83.6804 1.72915 83.6805 1.72915 83.6805 1.72914C83.6805 1.72914 83.6805 1.72914 83.6805 1.72913C83.6806 1.72913 83.6806 1.72913 83.6806 1.72913C83.6806 1.72912 83.6807 1.72912 83.6807 1.72912C83.6807 1.72911 83.681 1.72908 83.681 1.72907C83.681 1.72906 83.6811 1.72906 83.6811 1.72906C83.6811 1.72905 83.6812 1.72905 83.6812 1.72904C83.6813 1.72903 83.6813 1.72903 83.6814 1.72901C83.6815 1.729 83.6818 1.72896 83.6819 1.72895C83.6819 1.72895 83.6822 1.72891 83.6822 1.72891C83.6822 1.7289 83.6823 1.7289 83.6823 1.72889C83.6824 1.72888 83.6824 1.72888 83.6825 1.72887C83.6844 1.72861 83.6862 1.72836 83.6897 1.72788C83.6901 1.72783 83.6918 1.7276 83.6923 1.72754C83.6925 1.7275 83.6927 1.72748 83.6929 1.72744C83.6932 1.72741 83.6934 1.72738 83.6937 1.72735C83.6939 1.72732 83.6949 1.72718 83.6951 1.72715C83.6954 1.7271 83.6963 1.72698 83.6967 1.72694C83.6974 1.72684 83.6975 1.72682 83.6983 1.72672C83.7 1.72647 83.6999 1.7265 83.7017 1.72624C83.7114 1.72493 83.7073 1.72548 83.7186 1.72395C83.7515 1.71946 83.7755 1.71619 83.8341 1.7082C83.9057 1.69843 83.9293 1.69521 84.0266 1.68195C84.0474 1.6791 84.0643 1.67681 84.0867 1.67374C84.1031 1.67151 84.1018 1.67168 84.1186 1.6694C84.1214 1.66901 84.1321 1.66756 84.135 1.66716C84.1424 1.66615 84.1359 1.66704 84.1433 1.66603C84.1499 1.66513 84.1451 1.66578 84.1517 1.66488C84.1535 1.66464 84.1838 1.6605 84.186 1.66021C84.2067 1.65738 84.2004 1.65825 84.2215 1.65537C84.2394 1.65292 84.2765 1.64786 84.2961 1.6452L84.2015 0.951616L84.1069 0.258035C84.083 0.261299 84.0926 0.259993 84.069 0.263203C84.0578 0.264738 84.0432 0.266726 84.0323 0.268206C83.988 0.274251 84.0053 0.271896 83.9625 0.277722C83.9222 0.283227 83.9363 0.281295 83.8976 0.286582C83.8969 0.28667 83.8963 0.286759 83.8956 0.286848C83.895 0.286937 83.8943 0.287025 83.8937 0.287114C83.8918 0.287374 83.8917 0.287383 83.8898 0.287643C83.8891 0.287731 83.8885 0.287819 83.8879 0.287907C83.8872 0.287994 83.8866 0.288082 83.8859 0.28817C83.8853 0.288257 83.8846 0.288345 83.884 0.288432C83.8834 0.28852 83.8827 0.288607 83.8821 0.288694C83.8814 0.288781 83.8808 0.288868 83.8802 0.288955C83.8795 0.289042 83.8789 0.289129 83.8783 0.289216C83.8776 0.289302 83.877 0.289389 83.8764 0.289475C83.8757 0.289562 83.8751 0.289648 83.8745 0.289735C83.8724 0.290011 83.8727 0.289976 83.8707 0.290251C83.87 0.290337 83.8694 0.290423 83.8688 0.290509C83.8681 0.290594 83.8675 0.29068 83.8669 0.290765C83.8629 0.291312 83.8634 0.291242 83.8594 0.291786C83.8588 0.29187 83.8582 0.291955 83.8576 0.292039C83.8569 0.292123 83.8563 0.292208 83.8557 0.292292C83.8551 0.292376 83.8545 0.29246 83.8539 0.292544C83.8532 0.292628 83.8526 0.292712 83.852 0.292796C83.844 0.293884 83.8453 0.29371 83.8374 0.294785C83.8058 0.299093 83.8121 0.298242 83.7821 0.302332C83.7813 0.30244 83.7763 0.303124 83.7755 0.303229C83.775 0.303292 83.7694 0.304057 83.769 0.304116C83.7667 0.304425 83.768 0.304247 83.7658 0.304556C83.7652 0.304629 83.7647 0.304702 83.7642 0.304774C83.7636 0.304847 83.7631 0.30492 83.7626 0.304993C83.7601 0.305326 83.7586 0.305529 83.7562 0.305859C83.7471 0.3071 83.7402 0.308036 83.7315 0.309222C83.7299 0.309441 83.7212 0.310638 83.7197 0.310843C83.7193 0.310897 83.7142 0.311586 83.7138 0.311637C83.7136 0.31167 83.7112 0.311999 83.7109 0.312031C83.7105 0.312096 83.71 0.312161 83.7095 0.312227C83.709 0.312292 83.7086 0.312357 83.7081 0.312422C83.7039 0.31299 83.6896 0.314943 83.6858 0.315457C83.682 0.315975 83.6842 0.315675 83.6804 0.31619C83.6778 0.316556 83.6778 0.316551 83.6751 0.316913C83.6747 0.316973 83.6743 0.317032 83.6738 0.317092C83.6734 0.317152 83.673 0.317211 83.6725 0.317271C83.6721 0.31733 83.6717 0.317389 83.6712 0.317448C83.6708 0.317508 83.6704 0.317567 83.6699 0.317626C83.6696 0.317673 83.6677 0.317931 83.6673 0.317978C83.6669 0.318037 83.6665 0.318095 83.6661 0.318153C83.6656 0.318212 83.6652 0.31827 83.6648 0.318328C83.655 0.319655 83.6543 0.319762 83.6449 0.321035C83.6281 0.323323 83.624 0.323887 83.6088 0.325957C83.6023 0.326845 83.5987 0.327338 83.5926 0.328172C83.5918 0.328284 83.5895 0.328591 83.5887 0.3287C83.5884 0.328743 83.5881 0.328787 83.5878 0.32883C83.5874 0.328874 83.5871 0.328917 83.5868 0.32896C83.5861 0.32905 83.5856 0.329129 83.5849 0.329218C83.5838 0.329365 83.5785 0.330089 83.5775 0.330223C83.5645 0.332004 83.5361 0.335878 83.5294 0.336785C83.5147 0.338792 83.5088 0.33959 83.5005 0.340723C83.4989 0.340947 83.4976 0.341127 83.4963 0.341297C83.4959 0.341362 83.4959 0.341354 83.4955 0.341415C83.495 0.341479 83.4951 0.341461 83.4947 0.341522C83.494 0.341615 83.4939 0.341628 83.4933 0.341707C83.4923 0.341852 83.4922 0.341863 83.4915 0.341953C83.4915 0.341957 83.4913 0.341988 83.4913 0.341989C83.4912 0.341993 83.4912 0.342 83.4912 0.342003C83.4911 0.342005 83.4911 0.342014 83.4911 0.342015C83.491 0.342019 83.491 0.34202 83.491 0.342024C83.491 0.342027 83.491 0.342028 83.491 0.34203C83.4909 0.342031 83.4909 0.342032 83.4909 0.342032C83.4909 0.342033 83.4909 0.342033 83.4909 0.342034C83.4909 0.342034 83.4909 0.342035 83.4909 0.342035C83.4909 0.342035 83.4909 0.342035 83.5855 1.03562ZM84.2015 0.951616L84.2961 1.6452C84.6895 1.59154 85.2173 1.53673 85.8836 1.4812L85.8255 0.783616L85.7674 0.0860341C85.0897 0.142507 84.5348 0.199689 84.1069 0.258034L84.2015 0.951616ZM85.8255 0.783616L85.8821 1.48133C86.5521 1.427 87.2611 1.39962 88.0095 1.39962V0.699615V-0.00038451C87.2272 -0.00038451 86.4802 0.0282316 85.7689 0.0859058L85.8255 0.783616Z" fill="#25A59E" mask="url(#path-1-outside-1_13_2062)"/>
</svg>
